<svg width="20" height="20" viewBox="0 0 20 20" fill="none" xmlns="http://www.w3.org/2000/svg">
<path d="M13.6735 9.08163H10.9184V6.32653C10.9184 5.98845 10.6443 5.71428 10.3062 5.71428H9.69395C9.35587 5.71428 9.0817 5.98845 9.0817 6.32653V9.08163H6.3266C5.98853 9.08163 5.71436 9.3558 5.71436 9.69387V10.3061C5.71436 10.6442 5.98853 10.9184 6.3266 10.9184H9.0817V13.6735C9.0817 14.0115 9.35587 14.2857 9.69395 14.2857H10.3062C10.6443 14.2857 10.9184 14.0115 10.9184 13.6735V10.9184H13.6735C14.0116 10.9184 14.2858 10.6442 14.2858 10.3061V9.69387C14.2858 9.3558 14.0116 9.08163 13.6735 9.08163Z" fill="white"/>
<rect width="20" height="20" rx="10" fill="white" fill-opacity="0.11"/>
</svg>
