<svg width="15" height="15" viewBox="0 0 15 15" fill="none" xmlns="http://www.w3.org/2000/svg">
<rect width="15" height="15" rx="7.5" fill="#1C1C1C"/>
<path d="M6.56929 5.20545L6.48571 5.37143H5.37143C5.16598 5.37143 5 5.53741 5 5.74286C5 5.9483 5.16598 6.11429 5.37143 6.11429H9.82857C10.034 6.11429 10.2 5.9483 10.2 5.74286C10.2 5.53741 10.034 5.37143 9.82857 5.37143H8.71429L8.63071 5.20545C8.56804 5.07893 8.4392 5 8.29875 5H6.90125C6.7608 5 6.63196 5.07893 6.56929 5.20545ZM9.82857 6.48571H5.37143L5.6175 10.4205C5.63607 10.7142 5.87982 10.9429 6.17348 10.9429H9.02652C9.32018 10.9429 9.56393 10.7142 9.5825 10.4205L9.82857 6.48571Z" fill="white"/>
</svg>
