<svg width="512" height="512" viewBox="0 0 512 512" fill="none" xmlns="http://www.w3.org/2000/svg">
<g clip-path="url(#clip0_152_3)">
<path d="M256 512C397.4 512 512 397.4 512 256C512 114.6 397.4 0 256 0C114.6 0 0 114.6 0 256C0 397.4 114.6 512 256 512ZM256 128C269.3 128 280 138.7 280 152V264C280 277.3 269.3 288 256 288C242.7 288 232 277.3 232 264V152C232 138.7 242.7 128 256 128ZM288 352C288 369.7 273.7 384 256 384C238.3 384 224 369.7 224 352C224 334.3 238.3 320 256 320C273.7 320 288 334.3 288 352Z" fill="#FF5F56"/>
</g>
<defs>
<clipPath id="clip0_152_3">
<rect width="512" height="512" fill="white"/>
</clipPath>
</defs>
</svg>
