<svg width="12" height="11" viewBox="0 0 12 11" fill="none" xmlns="http://www.w3.org/2000/svg">
<path d="M7.02976 3.98299C8.31339 5.26795 8.29577 7.32806 7.0375 8.59332C7.03513 8.5959 7.03234 8.59869 7.02976 8.60127L5.58601 10.045C4.31263 11.3184 2.24092 11.3182 0.96773 10.045C-0.305649 8.77186 -0.305649 6.6999 0.96773 5.42674L1.76493 4.62954C1.97634 4.41813 2.34041 4.55864 2.35132 4.8574C2.36525 5.23815 2.43352 5.62068 2.55951 5.99008C2.60217 6.11516 2.57169 6.25352 2.47823 6.34698L2.19707 6.62815C1.59494 7.23027 1.57606 8.21069 2.17225 8.81869C2.77433 9.4327 3.76394 9.43635 4.37064 8.82965L5.81439 7.38611C6.42006 6.78045 6.41752 5.80149 5.81439 5.19836C5.73488 5.119 5.65478 5.05734 5.59222 5.01426C5.54796 4.98387 5.51142 4.94355 5.4855 4.89653C5.45959 4.84951 5.44502 4.79708 5.44297 4.74343C5.43446 4.5164 5.5149 4.28246 5.69429 4.10307L6.14662 3.65071C6.26524 3.5321 6.45132 3.51753 6.58886 3.61352C6.74638 3.72351 6.89391 3.84714 7.02976 3.98299ZM10.0577 0.954939C8.78448 -0.318268 6.71276 -0.31844 5.43938 0.954939L3.99563 2.39869C3.99305 2.40127 3.99026 2.40406 3.9879 2.40664C2.72964 3.6719 2.712 5.73201 3.99563 7.01697C4.13147 7.15281 4.279 7.27643 4.43651 7.38642C4.57405 7.48241 4.76015 7.46782 4.87875 7.34923L5.33108 6.89687C5.51047 6.71748 5.59091 6.48353 5.5824 6.25651C5.58035 6.20286 5.56578 6.15043 5.53987 6.10341C5.51395 6.05639 5.47741 6.01607 5.43315 5.98568C5.37059 5.9426 5.29049 5.88094 5.21098 5.80158C4.60785 5.19845 4.60531 4.21949 5.21098 3.61382L6.65473 2.17029C7.26143 1.56359 8.25102 1.56724 8.85312 2.18125C9.44931 2.78925 9.43045 3.76967 8.8283 4.37179L8.54714 4.65296C8.45368 4.74642 8.42319 4.88478 8.46586 5.00986C8.59185 5.37926 8.66012 5.76179 8.67405 6.14253C8.68498 6.4413 9.04903 6.5818 9.26044 6.3704L10.0576 5.5732C11.331 4.30006 11.331 2.2281 10.0577 0.954939Z" fill="#2CBB5D"/>
</svg>
