<svg width="10" height="11" viewBox="0 0 10 11" fill="none" xmlns="http://www.w3.org/2000/svg">
<g clip-path="url(#clip0_124_598)">
<path d="M2.90555 2.89286V3.85714H6.11984V2.89286C6.11984 2.00491 5.40064 1.28571 4.5127 1.28571C3.62475 1.28571 2.90555 2.00491 2.90555 2.89286ZM1.61984 3.85714V2.89286C1.61984 1.29576 2.9156 0 4.5127 0C6.10979 0 7.40555 1.29576 7.40555 2.89286V3.85714H7.72698C8.43613 3.85714 9.0127 4.43371 9.0127 5.14286V9C9.0127 9.70915 8.43613 10.2857 7.72698 10.2857H1.29841C0.589258 10.2857 0.0126953 9.70915 0.0126953 9V5.14286C0.0126953 4.43371 0.589258 3.85714 1.29841 3.85714H1.61984Z" fill="white" fill-opacity="0.5"/>
</g>
<defs>
<clipPath id="clip0_124_598">
<rect width="9" height="10.2857" fill="white" transform="translate(0.0126953)"/>
</clipPath>
</defs>
</svg>
