<svg width="152" height="14" viewBox="0 0 152 14" fill="none" xmlns="http://www.w3.org/2000/svg">
<path d="M110.358 5.43124H108.965C108.926 5.20293 108.853 5.00067 108.746 4.82446C108.64 4.64578 108.507 4.4944 108.348 4.37031C108.189 4.24623 108.008 4.15316 107.804 4.09112C107.603 4.02659 107.386 3.99433 107.153 3.99433C106.739 3.99433 106.371 4.09856 106.051 4.30703C105.731 4.51301 105.48 4.81578 105.299 5.21533C105.118 5.61241 105.027 6.0976 105.027 6.67083C105.027 7.25408 105.118 7.74543 105.299 8.14496C105.482 8.54209 105.733 8.84231 106.051 9.04586C106.371 9.24684 106.737 9.34737 107.15 9.34737C107.378 9.34737 107.591 9.31761 107.79 9.25802C107.991 9.19601 108.17 9.10538 108.329 8.98627C108.49 8.86716 108.626 8.72071 108.735 8.547C108.846 8.37328 108.924 8.1748 108.965 7.95141L110.358 7.95887C110.306 8.32125 110.193 8.6612 110.019 8.97887C109.848 9.29654 109.623 9.57698 109.346 9.82018C109.068 10.0609 108.743 10.2495 108.37 10.386C107.998 10.52 107.585 10.587 107.13 10.587C106.46 10.587 105.863 10.4319 105.336 10.1217C104.81 9.81149 104.396 9.36353 104.093 8.77781C103.79 8.19217 103.639 7.48982 103.639 6.67083C103.639 5.84939 103.791 5.14709 104.097 4.56389C104.402 3.97821 104.817 3.53025 105.344 3.22004C105.87 2.90982 106.465 2.75471 107.13 2.75471C107.555 2.75471 107.95 2.81428 108.314 2.9334C108.679 3.05253 109.004 3.22748 109.29 3.45828C109.575 3.6866 109.81 3.96704 109.993 4.29958C110.179 4.62965 110.301 5.00687 110.358 5.43124ZM114.057 10.5945C113.499 10.5945 113.015 10.4716 112.605 10.2259C112.196 9.98022 111.878 9.63649 111.652 9.19481C111.429 8.75296 111.318 8.2368 111.318 7.64619C111.318 7.05555 111.429 6.53811 111.652 6.09387C111.878 5.64964 112.196 5.30468 112.605 5.05899C113.015 4.8133 113.499 4.69045 114.057 4.69045C114.616 4.69045 115.099 4.8133 115.51 5.05899C115.919 5.30468 116.235 5.64964 116.459 6.09387C116.684 6.53811 116.797 7.05555 116.797 7.64619C116.797 8.2368 116.684 8.75296 116.459 9.19481C116.235 9.63649 115.919 9.98022 115.51 10.2259C115.099 10.4716 114.616 10.5945 114.057 10.5945ZM114.065 9.51489C114.367 9.51489 114.621 9.43173 114.824 9.2655C115.028 9.09669 115.179 8.87086 115.279 8.58793C115.38 8.30508 115.431 7.98991 115.431 7.64247C115.431 7.29251 115.38 6.97611 115.279 6.69319C115.179 6.40777 115.028 6.1807 114.824 6.01199C114.621 5.84322 114.367 5.75883 114.065 5.75883C113.755 5.75883 113.497 5.84322 113.291 6.01199C113.087 6.1807 112.934 6.40777 112.833 6.69319C112.733 6.97611 112.683 7.29251 112.683 7.64247C112.683 7.98991 112.733 8.30508 112.833 8.58793C112.934 8.87086 113.087 9.09669 113.291 9.2655C113.497 9.43173 113.755 9.51489 114.065 9.51489ZM120.063 10.5833C119.614 10.5833 119.211 10.4678 118.857 10.2371C118.502 10.0063 118.221 9.67123 118.015 9.23196C117.81 8.79269 117.707 8.25916 117.707 7.63128C117.707 6.99597 117.81 6.4599 118.019 6.02311C118.23 5.58387 118.514 5.25256 118.871 5.0292C119.229 4.80337 119.627 4.69045 120.066 4.69045C120.402 4.69045 120.677 4.74754 120.893 4.86169C121.109 4.97337 121.28 5.10862 121.407 5.26745C121.533 5.4238 121.631 5.57146 121.7 5.71044H121.757V2.85895H123.108V10.4828H121.783V9.58188H121.7C121.631 9.72094 121.531 9.86851 121.399 10.0249C121.268 10.1788 121.094 10.3103 120.878 10.4195C120.662 10.5286 120.39 10.5833 120.063 10.5833ZM120.439 9.47765C120.724 9.47765 120.967 9.40069 121.168 9.24684C121.369 9.09058 121.522 8.87335 121.627 8.59541C121.73 8.31747 121.783 7.99364 121.783 7.62383C121.783 7.25408 121.73 6.93267 121.627 6.65971C121.524 6.38669 121.373 6.17453 121.172 6.02311C120.973 5.87176 120.729 5.79605 120.439 5.79605C120.139 5.79605 119.888 5.8742 119.687 6.03057C119.486 6.18694 119.334 6.40282 119.232 6.67829C119.131 6.95375 119.08 7.26893 119.08 7.62383C119.08 7.98118 119.131 8.3001 119.232 8.58053C119.337 8.85848 119.49 9.07811 119.691 9.23944C119.894 9.39828 120.143 9.47765 120.439 9.47765ZM127.075 10.5945C126.502 10.5945 126.007 10.4753 125.59 10.2371C125.176 9.99638 124.856 9.65636 124.634 9.21708C124.41 8.7754 124.298 8.25538 124.298 7.65731C124.298 7.06918 124.41 6.55296 124.634 6.10872C124.859 5.66205 125.174 5.3146 125.579 5.06643C125.983 4.81578 126.458 4.69045 127.004 4.69045C127.357 4.69045 127.69 4.74754 128.002 4.86169C128.317 4.97337 128.595 5.14709 128.836 5.38285C129.079 5.61862 129.27 5.91893 129.409 6.28373C129.548 6.64602 129.617 7.07786 129.617 7.57917V7.99236H124.931V7.08409H128.326C128.323 6.82598 128.268 6.5964 128.158 6.39537C128.049 6.19189 127.896 6.03179 127.701 5.9152C127.507 5.79854 127.281 5.74022 127.023 5.74022C126.748 5.74022 126.506 5.80723 126.297 5.94123C126.088 6.07279 125.926 6.24651 125.809 6.4624C125.695 6.67584 125.637 6.91037 125.635 7.16597V7.95887C125.635 8.29141 125.695 8.57683 125.817 8.81505C125.939 9.05085 126.108 9.23196 126.327 9.35855C126.545 9.48264 126.801 9.54465 127.094 9.54465C127.29 9.54465 127.468 9.51738 127.626 9.46278C127.785 9.40576 127.923 9.3226 128.039 9.21338C128.156 9.10417 128.244 8.96898 128.303 8.80765L129.562 8.94911C129.482 9.28158 129.331 9.57199 129.107 9.82018C128.887 10.0659 128.604 10.257 128.259 10.3934C127.914 10.5274 127.519 10.5945 127.075 10.5945ZM133.654 4.76491V5.80723H130.274V4.76491H133.654ZM131.119 10.4828V4.22513C131.119 3.84047 131.198 3.52033 131.357 3.26471C131.519 3.00909 131.734 2.81801 132.005 2.69144C132.275 2.56487 132.575 2.50158 132.906 2.50158C133.139 2.50158 133.346 2.52019 133.528 2.55743C133.708 2.59465 133.843 2.62815 133.93 2.65793L133.661 3.70025C133.604 3.68288 133.532 3.66551 133.446 3.64813C133.359 3.62828 133.262 3.61835 133.155 3.61835C132.904 3.61835 132.727 3.67915 132.623 3.80076C132.521 3.91988 132.47 4.09112 132.47 4.31447V10.4828H131.119ZM136.988 10.5945C136.43 10.5945 135.946 10.4716 135.537 10.2259C135.127 9.98022 134.809 9.63649 134.583 9.19481C134.36 8.75296 134.249 8.2368 134.249 7.64619C134.249 7.05555 134.36 6.53811 134.583 6.09387C134.809 5.64964 135.127 5.30468 135.537 5.05899C135.946 4.8133 136.43 4.69045 136.988 4.69045C137.547 4.69045 138.03 4.8133 138.44 5.05899C138.85 5.30468 139.166 5.64964 139.39 6.09387C139.616 6.53811 139.728 7.05555 139.728 7.64619C139.728 8.2368 139.616 8.75296 139.39 9.19481C139.166 9.63649 138.85 9.98022 138.44 10.2259C138.03 10.4716 137.547 10.5945 136.988 10.5945ZM136.996 9.51489C137.299 9.51489 137.552 9.43173 137.755 9.2655C137.959 9.09669 138.11 8.87086 138.209 8.58793C138.311 8.30508 138.362 7.98991 138.362 7.64247C138.362 7.29251 138.311 6.97611 138.209 6.69319C138.11 6.40777 137.959 6.1807 137.755 6.01199C137.552 5.84322 137.299 5.75883 136.996 5.75883C136.686 5.75883 136.428 5.84322 136.222 6.01199C136.018 6.1807 135.865 6.40777 135.763 6.69319C135.664 6.97611 135.615 7.29251 135.615 7.64247C135.615 7.98991 135.664 8.30508 135.763 8.58793C135.865 8.87086 136.018 9.09669 136.222 9.2655C136.428 9.43173 136.686 9.51489 136.996 9.51489ZM142.22 2.85895V10.4828H140.872V2.85895H142.22ZM143.605 10.4828V4.76491H144.952V10.4828H143.605ZM144.283 3.95338C144.069 3.95338 143.886 3.88266 143.732 3.7412C143.578 3.59726 143.501 3.42478 143.501 3.22376C143.501 3.02026 143.578 2.84778 143.732 2.70633C143.886 2.56239 144.069 2.49042 144.283 2.49042C144.498 2.49042 144.682 2.56239 144.833 2.70633C144.988 2.84778 145.064 3.02026 145.064 3.22376C145.064 3.42478 144.988 3.59726 144.833 3.7412C144.682 3.88266 144.498 3.95338 144.283 3.95338ZM148.832 10.5945C148.275 10.5945 147.791 10.4716 147.381 10.2259C146.971 9.98022 146.653 9.63649 146.427 9.19481C146.205 8.75296 146.093 8.2368 146.093 7.64619C146.093 7.05555 146.205 6.53811 146.427 6.09387C146.653 5.64964 146.971 5.30468 147.381 5.05899C147.791 4.8133 148.275 4.69045 148.832 4.69045C149.391 4.69045 149.875 4.8133 150.285 5.05899C150.694 5.30468 151.011 5.64964 151.234 6.09387C151.46 6.53811 151.572 7.05555 151.572 7.64619C151.572 8.2368 151.46 8.75296 151.234 9.19481C151.011 9.63649 150.694 9.98022 150.285 10.2259C149.875 10.4716 149.391 10.5945 148.832 10.5945ZM148.84 9.51489C149.143 9.51489 149.396 9.43173 149.599 9.2655C149.804 9.09669 149.955 8.87086 150.054 8.58793C150.156 8.30508 150.207 7.98991 150.207 7.64247C150.207 7.29251 150.156 6.97611 150.054 6.69319C149.955 6.40777 149.804 6.1807 149.599 6.01199C149.396 5.84322 149.143 5.75883 148.84 5.75883C148.53 5.75883 148.272 5.84322 148.066 6.01199C147.862 6.1807 147.709 6.40777 147.608 6.69319C147.508 6.97611 147.459 7.29251 147.459 7.64247C147.459 7.98991 147.508 8.30508 147.608 8.58793C147.709 8.87086 147.862 9.09669 148.066 9.2655C148.272 9.43173 148.53 9.51489 148.84 9.51489Z" fill="white"/>
<path d="M89.5039 1.57605C89.5787 1.2782 89.7484 1.01281 89.9872 0.820293C90.2261 0.627776 90.522 0.518669 90.8293 0.509583H98.1052C98.7091 0.509583 99.0952 0.986399 98.9713 1.57605L96.7146 12.1717C96.6656 12.3697 96.5538 12.5465 96.3954 12.6752C96.2369 12.8039 96.0415 12.8776 95.8372 12.885H87.1089L89.5039 1.57605Z" fill="url(#paint0_linear_120_59)"/>
<path d="M84.4806 7.39988C84.3568 6.81022 84.7428 6.33337 85.3468 6.33337H92.6235C92.9291 6.34403 93.2226 6.45381 93.4607 6.64623C93.6979 6.83864 93.8668 7.10316 93.9408 7.39988L94.9566 12.1717C95.0048 12.3698 95.1174 12.5465 95.2759 12.6752C95.4335 12.8039 95.6297 12.8776 95.834 12.8851H86.377C85.9765 12.8851 85.58 12.5648 85.4964 12.1717L84.4806 7.40349V7.39988Z" fill="#9A66FF"/>
<path d="M95.8372 12.8851C95.4327 12.8851 95.0362 12.5648 94.9557 12.1717L93.9408 7.40349C93.8676 7.10613 93.6987 6.8408 93.4615 6.64768C93.2234 6.45456 92.9291 6.34421 92.6227 6.33337H88.4994L87.1121 12.8851H95.8332H95.8372Z" fill="url(#paint1_linear_120_59)"/>
<path d="M0.75 2.85138H2.43558L4.69291 8.36106H4.78201L7.03935 2.85138H8.72491V10.455H7.4032V5.23125H7.33265L5.23126 10.4328H4.24367L2.14227 5.22011H2.07173V10.455H0.75V2.85138ZM11.8065 10.5701C11.4451 10.5701 11.1196 10.5058 10.8301 10.3771C10.543 10.2459 10.3152 10.0528 10.1469 9.79791C9.98104 9.54297 9.89812 9.22859 9.89812 8.85486C9.89812 8.53309 9.95756 8.26705 10.0763 8.05666C10.1951 7.84624 10.3573 7.67793 10.5627 7.55169C10.7681 7.42546 10.9996 7.33017 11.257 7.26582C11.5169 7.19899 11.7854 7.15073 12.0626 7.12102C12.3968 7.08637 12.6678 7.05543 12.8757 7.0282C13.0837 6.9985 13.2346 6.95395 13.3287 6.89455C13.4252 6.83267 13.4735 6.73737 13.4735 6.60866V6.58639C13.4735 6.3067 13.3906 6.09012 13.2247 5.93666C13.0589 5.7832 12.8201 5.70648 12.5082 5.70648C12.179 5.70648 11.9179 5.77825 11.7248 5.92181C11.5343 6.06537 11.4055 6.23491 11.3387 6.43045L10.0838 6.25224C10.1828 5.90572 10.3462 5.61613 10.5738 5.38346C10.8016 5.14832 11.08 4.97259 11.4092 4.85626C11.7384 4.73745 12.1023 4.67805 12.5008 4.67805C12.7755 4.67805 13.049 4.71022 13.3213 4.77458C13.5936 4.83893 13.8423 4.94537 14.0675 5.09388C14.2928 5.23991 14.4735 5.43916 14.6096 5.69162C14.7482 5.94409 14.8175 6.25967 14.8175 6.63837V10.455H13.5255V9.67164H13.4809C13.3993 9.83008 13.2842 9.97862 13.1356 10.1172C12.9896 10.2533 12.8052 10.3634 12.5824 10.4476C12.3621 10.5293 12.1035 10.5701 11.8065 10.5701ZM12.1554 9.58253C12.4253 9.58253 12.6591 9.52937 12.8572 9.42289C13.0552 9.314 13.2074 9.17044 13.3139 8.99223C13.4228 8.81401 13.4772 8.61971 13.4772 8.40932V7.73733C13.4351 7.77199 13.3633 7.80417 13.2619 7.83387C13.1629 7.86357 13.0515 7.88955 12.9277 7.91183C12.804 7.93411 12.6814 7.95391 12.5601 7.97124C12.4389 7.98856 12.3337 8.00341 12.2446 8.01578C12.0441 8.04299 11.8646 8.08754 11.7063 8.14947C11.5478 8.21132 11.4229 8.29793 11.3313 8.40932C11.2397 8.51821 11.1939 8.65935 11.1939 8.83259C11.1939 9.08013 11.2842 9.26695 11.4649 9.39322C11.6456 9.5194 11.8758 9.58253 12.1554 9.58253ZM18.2852 10.5553C17.8372 10.5553 17.4362 10.4402 17.0823 10.21C16.7283 9.97982 16.4486 9.64567 16.2432 9.2076C16.0377 8.76945 15.935 8.23729 15.935 7.6111C15.935 6.97746 16.039 6.44283 16.2469 6.0072C16.4573 5.56911 16.7407 5.23867 17.0971 5.01591C17.4536 4.79066 17.8508 4.67805 18.2889 4.67805C18.6231 4.67805 18.8978 4.73498 19.1131 4.84883C19.3285 4.96021 19.4992 5.09511 19.6255 5.25352C19.7517 5.40946 19.8495 5.55673 19.9188 5.69534H19.9744V2.85138H21.3222V10.455H20.0005V9.55656H19.9188C19.8495 9.69521 19.7492 9.84246 19.6181 9.9984C19.4869 10.1519 19.3136 10.283 19.0983 10.3919C18.8829 10.5008 18.6119 10.5553 18.2852 10.5553ZM18.6602 9.45265C18.9448 9.45265 19.1874 9.37585 19.3878 9.2224C19.5883 9.06646 19.7406 8.84988 19.8445 8.57266C19.9485 8.29544 20.0005 7.97248 20.0005 7.60368C20.0005 7.23488 19.9485 6.91435 19.8445 6.64208C19.7431 6.36982 19.5921 6.15819 19.3916 6.0072C19.1935 5.85622 18.9498 5.78072 18.6602 5.78072C18.3607 5.78072 18.1107 5.85869 17.9102 6.01463C17.7097 6.17057 17.5588 6.3859 17.4573 6.66064C17.3558 6.93538 17.305 7.24973 17.305 7.60368C17.305 7.9601 17.3558 8.27815 17.4573 8.55786C17.5612 8.83508 17.7134 9.05407 17.9139 9.215C18.1169 9.37343 18.3656 9.45265 18.6602 9.45265ZM25.279 10.5664C24.7073 10.5664 24.2135 10.4476 23.7977 10.21C23.3843 9.96993 23.0662 9.63079 22.8435 9.19272C22.6207 8.75216 22.5093 8.23359 22.5093 7.63709C22.5093 7.05048 22.6207 6.53565 22.8435 6.0926C23.0687 5.64707 23.3831 5.30055 23.7865 5.05304C24.19 4.80304 24.6639 4.67805 25.2085 4.67805C25.56 4.67805 25.8917 4.73498 26.2035 4.84883C26.5178 4.96021 26.795 5.13348 27.0351 5.36862C27.2777 5.60375 27.4683 5.90325 27.6069 6.26709C27.7455 6.62847 27.8148 7.05914 27.8148 7.55912V7.97124H23.1405V7.06533H26.5265C26.524 6.80791 26.4684 6.57896 26.3594 6.37848C26.2505 6.17551 26.0983 6.01586 25.9028 5.89953C25.7097 5.7832 25.4845 5.72504 25.227 5.72504C24.9523 5.72504 24.711 5.79186 24.5031 5.92553C24.2952 6.0567 24.133 6.22997 24.0167 6.4453C23.9029 6.65817 23.8446 6.89207 23.8422 7.14701V7.93782C23.8422 8.26946 23.9029 8.55416 24.0241 8.79173C24.1454 9.02689 24.315 9.2076 24.5327 9.33378C24.7506 9.45756 25.0056 9.5194 25.2976 9.5194C25.4932 9.5194 25.6701 9.49222 25.8285 9.43777C25.9869 9.38083 26.1243 9.29792 26.2406 9.18902C26.357 9.08013 26.4448 8.94518 26.5042 8.78433L27.7591 8.92539C27.6799 9.25706 27.5289 9.54666 27.3061 9.79421C27.0859 10.0393 26.8037 10.2298 26.4597 10.3659C26.1156 10.4996 25.722 10.5664 25.279 10.5664ZM32.7221 10.455L31.1108 4.7523H32.4808L33.4832 8.76206H33.5352L34.5599 4.7523H35.915L36.9397 8.73978H36.9955L37.983 4.7523H39.3568L37.7417 10.455H36.342L35.2727 6.60124H35.1948L34.1255 10.455H32.7221ZM40.2951 10.455V4.7523H41.6391V10.455H40.2951ZM40.9709 3.94293C40.758 3.94293 40.5748 3.87239 40.4213 3.7313C40.2679 3.58775 40.1911 3.41572 40.1911 3.21524C40.1911 3.01227 40.2679 2.84025 40.4213 2.69917C40.5748 2.5556 40.758 2.48383 40.9709 2.48383C41.1861 2.48383 41.3693 2.5556 41.5203 2.69917C41.6738 2.84025 41.7505 3.01227 41.7505 3.21524C41.7505 3.41572 41.6738 3.58775 41.5203 3.7313C41.3693 3.87239 41.1861 3.94293 40.9709 3.94293ZM45.8689 4.7523V5.79186H42.5905V4.7523H45.8689ZM43.3999 3.38602H44.7439V8.73978C44.7439 8.92049 44.7711 9.05906 44.8255 9.15557C44.8825 9.24966 44.9568 9.314 45.0483 9.34866C45.1399 9.38333 45.2414 9.40062 45.3528 9.40062C45.4369 9.40062 45.5136 9.39442 45.583 9.38204C45.6548 9.36965 45.7092 9.35855 45.7463 9.34866L45.9728 10.3994C45.901 10.4241 45.7983 10.4513 45.6647 10.481C45.5334 10.5107 45.3726 10.5281 45.182 10.533C44.8454 10.5429 44.5421 10.4922 44.2724 10.3808C44.0026 10.2669 43.7885 10.0912 43.63 9.85356C43.4741 9.61599 43.3974 9.31899 43.3999 8.96255V3.38602ZM48.4594 7.11359V10.455H47.1154V2.85138H48.4297V5.72132H48.4965C48.6302 5.39956 48.8369 5.14585 49.1165 4.96021C49.3987 4.7721 49.7576 4.67805 50.1932 4.67805C50.5892 4.67805 50.9346 4.76096 51.2291 4.9268C51.5236 5.09264 51.7513 5.3352 51.9122 5.65449C52.0756 5.97379 52.1572 6.36362 52.1572 6.824V10.455H50.8133V7.03192C50.8133 6.64827 50.7143 6.35001 50.5162 6.13715C50.3207 5.92181 50.046 5.81414 49.692 5.81414C49.4544 5.81414 49.2416 5.86612 49.0535 5.97008C48.8678 6.07156 48.7217 6.21883 48.6153 6.41189C48.5113 6.60495 48.4594 6.83885 48.4594 7.11359ZM69.1467 10.455V2.85138H70.4907V5.69534H70.5463C70.6157 5.55673 70.7135 5.40946 70.8397 5.25352C70.9659 5.09511 71.1367 4.96021 71.352 4.84883C71.5674 4.73498 71.8421 4.67805 72.1763 4.67805C72.6168 4.67805 73.0141 4.79066 73.3681 5.01591C73.7244 5.23867 74.0066 5.56911 74.2145 6.0072C74.4249 6.44283 74.5301 6.97746 74.5301 7.6111C74.5301 8.23729 74.4274 8.76945 74.222 9.2076C74.0165 9.64567 73.7368 9.97982 73.3829 10.21C73.0289 10.4402 72.6279 10.5553 72.18 10.5553C71.8532 10.5553 71.5822 10.5008 71.3669 10.3919C71.1515 10.283 70.9783 10.1519 70.8471 9.9984C70.7184 9.84246 70.6182 9.69521 70.5463 9.55656H70.4684V10.455H69.1467ZM70.4647 7.60368C70.4647 7.97248 70.5167 8.29544 70.6207 8.57266C70.7271 8.84988 70.8793 9.06646 71.0773 9.2224C71.2778 9.37585 71.5204 9.45265 71.805 9.45265C72.102 9.45265 72.3507 9.37343 72.5512 9.215C72.7517 9.05407 72.9027 8.83508 73.0042 8.55786C73.1081 8.27815 73.1601 7.9601 73.1601 7.60368C73.1601 7.24973 73.1094 6.93538 73.0079 6.66064C72.9064 6.3859 72.7554 6.17057 72.555 6.01463C72.3545 5.85869 72.1045 5.78072 71.805 5.78072C71.5179 5.78072 71.2741 5.85622 71.0736 6.0072C70.8731 6.15819 70.7209 6.36982 70.617 6.64208C70.5155 6.91435 70.4647 7.23488 70.4647 7.60368ZM76.3141 12.5936C76.1309 12.5936 75.9614 12.5787 75.8055 12.549C75.652 12.5218 75.5295 12.4896 75.4379 12.4525L75.7497 11.4055C75.9453 11.4624 76.1198 11.4897 76.2733 11.4872C76.4267 11.4847 76.5616 11.4365 76.678 11.3424C76.7968 11.2508 76.897 11.0974 76.9787 10.882L77.0938 10.5738L75.0258 4.7523H76.4514L77.7658 9.05906H77.8251L79.1432 4.7523H80.5729L78.2893 11.1456C78.1829 11.4476 78.0417 11.7063 77.866 11.9216C77.6903 12.1394 77.475 12.3052 77.22 12.4191C76.9675 12.5354 76.6656 12.5936 76.3141 12.5936Z" fill="white"/>
<path d="M64.206 3.59267C63.1731 2.71241 61.6369 2.87075 60.6888 3.84902L60.3174 4.23166L59.9461 3.84902C58.9999 2.87075 57.4618 2.71241 56.4289 3.59267C55.2451 4.60299 55.1829 6.41628 56.2423 7.51142L59.8896 11.2775C60.1252 11.5207 60.5078 11.5207 60.7434 11.2775L64.3908 7.51142C65.452 6.41628 65.3898 4.60299 64.206 3.59267Z" fill="#FF5F56"/>
<defs>
<linearGradient id="paint0_linear_120_59" x1="93.053" y1="0.505943" x2="93.053" y2="12.885" gradientUnits="userSpaceOnUse">
<stop stop-color="#FF5091"/>
<stop offset="1" stop-color="#E03071"/>
</linearGradient>
<linearGradient id="paint1_linear_120_59" x1="91.4726" y1="6.33337" x2="91.4726" y2="12.8851" gradientUnits="userSpaceOnUse">
<stop stop-color="#6E00F5"/>
<stop offset="1" stop-color="#9860FE"/>
</linearGradient>
</defs>
</svg>
