<svg width="15" height="14" viewBox="0 0 15 14" fill="none" xmlns="http://www.w3.org/2000/svg">
<g clip-path="url(#clip0_124_596)">
<path d="M3.92012 3.90742C5.6209 2.20664 8.36895 2.19843 10.0807 3.88008L8.9541 5.0039C8.76543 5.19258 8.71074 5.47422 8.81191 5.72031C8.91309 5.9664 9.15371 6.125 9.41895 6.125H12.6865H12.9189C13.2826 6.125 13.5752 5.83242 13.5752 5.46875V1.96875C13.5752 1.70351 13.4166 1.46289 13.1705 1.36172C12.9244 1.26054 12.6428 1.31523 12.4541 1.5039L11.3166 2.6414C8.92129 0.276169 5.06309 0.284373 2.68145 2.66875C2.01426 3.33594 1.53301 4.1207 1.2377 4.96015C1.07637 5.41679 1.31699 5.91445 1.7709 6.07578C2.2248 6.23711 2.7252 5.99648 2.88652 5.54258C3.09707 4.94648 3.43887 4.38594 3.92012 3.90742ZM0.450195 8.53125V8.73906V8.7582V12.0312C0.450195 12.2965 0.608789 12.5371 0.854883 12.6383C1.10098 12.7395 1.38262 12.6848 1.57129 12.4961L2.70879 11.3586C5.1041 13.7238 8.9623 13.7156 11.3439 11.3312C12.0111 10.6641 12.4951 9.8793 12.7904 9.04258C12.9518 8.58594 12.7111 8.08828 12.2572 7.92695C11.8033 7.76562 11.3029 8.00625 11.1416 8.46015C10.9311 9.05625 10.5893 9.6168 10.108 10.0953C8.40723 11.7961 5.65918 11.8043 3.94746 10.1227L5.07129 8.99609C5.25996 8.80742 5.31465 8.52578 5.21348 8.27969C5.1123 8.03359 4.87168 7.875 4.60645 7.875H1.33613H1.31699H1.10645C0.742773 7.875 0.450195 8.16758 0.450195 8.53125Z" fill="white"/>
</g>
<defs>
<clipPath id="clip0_124_596">
<rect width="14" height="14" fill="white" transform="translate(0.0126953)"/>
</clipPath>
</defs>
</svg>
