<svg width="1494" height="297" viewBox="0 0 1494 297" fill="none" xmlns="http://www.w3.org/2000/svg">
<path d="M573.083 120.112H542.294C541.415 115.063 539.796 110.59 537.437 106.693C535.077 102.742 532.141 99.3939 528.627 96.6497C525.115 93.9055 521.108 91.8474 516.608 90.4753C512.162 89.0483 507.361 88.3348 502.202 88.3348C493.037 88.3348 484.914 90.6399 477.834 95.2502C470.753 99.8055 465.21 106.501 461.204 115.338C457.197 124.119 455.193 134.849 455.193 147.526C455.193 160.425 457.197 171.291 461.204 180.127C465.265 188.908 470.808 195.549 477.834 200.05C484.914 204.495 493.008 206.718 502.119 206.718C507.169 206.718 511.888 206.06 516.279 204.742C520.725 203.371 524.704 201.367 528.216 198.733C531.784 196.099 534.775 192.86 537.19 189.018C539.66 185.176 541.361 180.785 542.294 175.846L573.083 176.011C571.931 184.025 569.434 191.544 565.592 198.568C561.804 205.594 556.838 211.795 550.691 217.173C544.544 222.498 537.354 226.668 529.122 229.687C520.889 232.65 511.752 234.133 501.707 234.133C486.889 234.133 473.662 230.702 462.027 223.842C450.392 216.981 441.226 207.075 434.53 194.122C427.835 181.171 424.487 165.638 424.487 147.526C424.487 129.36 427.862 113.828 434.612 100.931C441.364 87.9782 450.557 78.0717 462.192 71.2113C473.827 64.3508 486.999 60.9206 501.707 60.9206C511.092 60.9206 519.819 62.2379 527.887 64.8722C535.954 67.5067 543.145 71.3759 549.456 76.48C555.768 81.5294 560.954 87.7311 565.015 95.0855C569.131 102.385 571.821 110.727 573.083 120.112ZM654.893 234.298C642.545 234.298 631.843 231.58 622.787 226.146C613.731 220.714 606.707 213.112 601.712 203.344C596.773 193.573 594.303 182.158 594.303 169.096C594.303 156.034 596.773 144.591 601.712 134.766C606.707 124.942 613.731 117.313 622.787 111.88C631.843 106.446 642.545 103.73 654.893 103.73C667.243 103.73 677.945 106.446 687 111.88C696.057 117.313 703.054 124.942 707.994 134.766C712.988 144.591 715.486 156.034 715.486 169.096C715.486 182.158 712.988 193.573 707.994 203.344C703.054 213.112 696.057 220.714 687 226.146C677.945 231.58 667.243 234.298 654.893 234.298ZM655.058 210.423C661.754 210.423 667.353 208.584 671.853 204.907C676.353 201.175 679.702 196.18 681.896 189.923C684.148 183.668 685.272 176.698 685.272 169.014C685.272 161.275 684.148 154.277 681.896 148.021C679.702 141.708 676.353 136.687 671.853 132.956C667.353 129.223 661.754 127.357 655.058 127.357C648.199 127.357 642.491 129.223 637.935 132.956C633.435 136.687 630.06 141.708 627.81 148.021C625.614 154.277 624.516 161.275 624.516 169.014C624.516 176.698 625.614 183.668 627.81 189.923C630.06 196.18 633.435 201.175 637.935 204.907C642.491 208.584 648.199 210.423 655.058 210.423ZM787.705 234.05C777.771 234.05 768.881 231.498 761.032 226.394C753.183 221.29 746.982 213.88 742.426 204.167C737.871 194.452 735.593 182.652 735.593 168.766C735.593 154.716 737.898 142.861 742.509 133.202C747.174 123.488 753.458 116.161 761.362 111.221C769.264 106.227 778.073 103.73 787.787 103.73C795.197 103.73 801.289 104.992 806.063 107.517C810.839 109.986 814.625 112.978 817.424 116.49C820.224 119.948 822.391 123.213 823.928 126.287H825.163V63.2257H855.047V231.827H825.739V211.904H823.928C822.391 214.979 820.169 218.244 817.26 221.702C814.351 225.104 810.509 228.013 805.735 230.427C800.959 232.842 794.95 234.05 787.705 234.05ZM796.02 209.599C802.332 209.599 807.71 207.898 812.155 204.495C816.601 201.038 819.977 196.235 822.282 190.088C824.586 183.942 825.739 176.78 825.739 168.602C825.739 160.425 824.586 153.316 822.282 147.28C820.032 141.242 816.683 136.55 812.237 133.202C807.847 129.854 802.441 128.18 796.02 128.18C789.379 128.18 783.836 129.908 779.39 133.366C774.944 136.825 771.597 141.599 769.347 147.691C767.097 153.783 765.971 160.753 765.971 168.602C765.971 176.504 767.097 183.557 769.347 189.76C771.652 195.906 775.027 200.764 779.473 204.331C783.973 207.844 789.489 209.599 796.02 209.599ZM942.785 234.298C930.108 234.298 919.158 231.663 909.937 226.394C900.772 221.071 893.72 213.552 888.779 203.837C883.84 194.068 881.371 182.569 881.371 169.342C881.371 156.335 883.84 144.919 888.779 135.095C893.774 125.216 900.744 117.533 909.69 112.044C918.636 106.501 929.147 103.73 941.221 103.73C949.014 103.73 956.368 104.992 963.283 107.517C970.254 109.986 976.401 113.828 981.725 119.042C987.104 124.256 991.329 130.897 994.402 138.965C997.477 146.977 999.013 156.527 999.013 167.614V176.752H895.366V156.665H970.447C970.391 150.957 969.156 145.88 966.741 141.434C964.327 136.934 960.951 133.394 956.616 130.815C952.335 128.235 947.34 126.945 941.632 126.945C935.54 126.945 930.189 128.427 925.579 131.391C920.968 134.3 917.374 138.142 914.794 142.916C912.27 147.637 910.98 152.823 910.925 158.476V176.011C910.925 183.365 912.27 189.677 914.959 194.946C917.648 200.16 921.408 204.167 926.237 206.965C931.067 209.71 936.72 211.081 943.197 211.081C947.532 211.081 951.456 210.477 954.97 209.271C958.482 208.008 961.528 206.169 964.108 203.754C966.687 201.339 968.635 198.349 969.952 194.781L997.778 197.91C996.021 205.264 992.674 211.685 987.735 217.173C982.85 222.607 976.593 226.833 968.964 229.852C961.336 232.815 952.609 234.298 942.785 234.298ZM1088.27 105.376V128.427H1013.52V105.376H1088.27ZM1032.21 231.827V93.439C1032.21 84.9321 1033.97 77.8521 1037.48 72.1991C1041.05 66.5461 1045.82 62.3202 1051.8 59.5211C1057.79 56.7221 1064.43 55.3225 1071.73 55.3225C1076.89 55.3225 1081.47 55.7341 1085.47 56.5575C1089.48 57.3807 1092.44 58.1215 1094.37 58.7802L1088.44 81.8311C1087.18 81.4469 1085.59 81.0628 1083.66 80.6786C1081.74 80.2395 1079.6 80.02 1077.24 80.02C1071.7 80.02 1067.78 81.3646 1065.47 84.054C1063.22 86.6883 1062.09 90.4753 1062.09 95.4148V231.827H1032.21ZM1162.02 234.298C1149.67 234.298 1138.97 231.58 1129.91 226.146C1120.85 220.714 1113.83 213.112 1108.84 203.344C1103.9 193.573 1101.43 182.158 1101.43 169.096C1101.43 156.034 1103.9 144.591 1108.84 134.766C1113.83 124.942 1120.85 117.313 1129.91 111.88C1138.97 106.446 1149.67 103.73 1162.02 103.73C1174.37 103.73 1185.07 106.446 1194.12 111.88C1203.18 117.313 1210.18 124.942 1215.12 134.766C1220.11 144.591 1222.61 156.034 1222.61 169.096C1222.61 182.158 1220.11 193.573 1215.12 203.344C1210.18 213.112 1203.18 220.714 1194.12 226.146C1185.07 231.58 1174.37 234.298 1162.02 234.298ZM1162.18 210.423C1168.88 210.423 1174.48 208.584 1178.98 204.907C1183.48 201.175 1186.82 196.18 1189.02 189.923C1191.27 183.668 1192.39 176.698 1192.39 169.014C1192.39 161.275 1191.27 154.277 1189.02 148.021C1186.82 141.708 1183.48 136.687 1178.98 132.956C1174.48 129.223 1168.88 127.357 1162.18 127.357C1155.32 127.357 1149.61 129.223 1145.06 132.956C1140.56 136.687 1137.18 141.708 1134.93 148.021C1132.74 154.277 1131.64 161.275 1131.64 169.014C1131.64 176.698 1132.74 183.668 1134.93 189.923C1137.18 196.18 1140.56 201.175 1145.06 204.907C1149.61 208.584 1155.32 210.423 1162.18 210.423ZM1277.7 63.2257V231.827H1247.9V63.2257H1277.7ZM1308.34 231.827V105.376H1338.15V231.827H1308.34ZM1323.34 87.4292C1318.61 87.4292 1314.55 85.8651 1311.15 82.7368C1307.75 79.5536 1306.04 75.7391 1306.04 71.2936C1306.04 66.7931 1307.75 62.9787 1311.15 59.8504C1314.55 56.6672 1318.61 55.0756 1323.34 55.0756C1328.1 55.0756 1332.17 56.6672 1335.52 59.8504C1338.92 62.9787 1340.62 66.7931 1340.62 71.2936C1340.62 75.7391 1338.92 79.5536 1335.52 82.7368C1332.17 85.8651 1328.1 87.4292 1323.34 87.4292ZM1423.95 234.298C1411.61 234.298 1400.91 231.58 1391.85 226.146C1382.79 220.714 1375.77 213.112 1370.77 203.344C1365.84 193.573 1363.36 182.158 1363.36 169.096C1363.36 156.034 1365.84 144.591 1370.77 134.766C1375.77 124.942 1382.79 117.313 1391.85 111.88C1400.91 106.446 1411.61 103.73 1423.95 103.73C1436.3 103.73 1447 106.446 1456.06 111.88C1465.11 117.313 1472.12 124.942 1477.05 134.766C1482.05 144.591 1484.55 156.034 1484.55 169.096C1484.55 182.158 1482.05 193.573 1477.05 203.344C1472.12 213.112 1465.11 220.714 1456.06 226.146C1447 231.58 1436.3 234.298 1423.95 234.298ZM1424.12 210.423C1430.81 210.423 1436.42 208.584 1440.91 204.907C1445.42 201.175 1448.77 196.18 1450.96 189.923C1453.21 183.668 1454.33 176.698 1454.33 169.014C1454.33 161.275 1453.21 154.277 1450.96 148.021C1448.77 141.708 1445.42 136.687 1440.91 132.956C1436.42 129.223 1430.81 127.357 1424.12 127.357C1417.26 127.357 1411.55 129.223 1407 132.956C1402.49 136.687 1399.12 141.708 1396.86 148.021C1394.67 154.277 1393.58 161.275 1393.58 169.014C1393.58 176.698 1394.67 183.668 1396.86 189.923C1399.12 196.18 1402.49 201.175 1407 204.907C1411.55 208.584 1417.26 210.423 1424.12 210.423Z" fill="white"/>
<path d="M111.892 34.8546C113.538 28.2674 117.291 22.3983 122.58 18.1408C127.87 13.8833 134.405 11.4704 141.192 11.2694H302.102C315.464 11.2694 323.997 21.8143 321.26 34.8546L271.353 269.177C270.272 273.558 267.794 277.467 264.294 280.313C260.794 283.159 256.462 284.789 251.954 284.955H58.9255L111.892 34.8546Z" fill="url(#paint0_linear_120_41)"/>
<path d="M0.806327 163.648C-1.93052 150.608 6.60202 140.062 19.9643 140.062H180.876C187.634 140.298 194.132 142.726 199.39 146.981C204.647 151.237 208.376 157.086 210.015 163.648L232.473 269.177C233.553 273.558 236.031 277.467 239.532 280.313C243.033 283.159 247.364 284.788 251.873 284.955H42.7446C33.89 284.955 25.116 277.871 23.2646 269.177L0.806327 163.728V163.648Z" fill="#9A66FF"/>
<path d="M251.949 284.955C243.015 284.955 234.24 277.871 232.469 269.177L210.011 163.728C208.387 157.152 204.664 151.284 199.407 147.013C194.148 142.743 187.641 140.302 180.872 140.062H89.6696L59.0007 284.955H251.869H251.949Z" fill="url(#paint1_linear_120_41)"/>
<defs>
<linearGradient id="paint0_linear_120_41" x1="190.374" y1="11.1889" x2="190.374" y2="284.955" gradientUnits="userSpaceOnUse">
<stop stop-color="#FF5091"/>
<stop offset="1" stop-color="#E03071"/>
</linearGradient>
<linearGradient id="paint1_linear_120_41" x1="155.435" y1="140.062" x2="155.435" y2="284.955" gradientUnits="userSpaceOnUse">
<stop stop-color="#6E00F5"/>
<stop offset="1" stop-color="#9860FE"/>
</linearGradient>
</defs>
</svg>
