<svg width="322" height="274" viewBox="0 0 322 274" fill="none" xmlns="http://www.w3.org/2000/svg">
<path d="M111.892 23.8546C113.538 17.2674 117.291 11.3983 122.58 7.14078C127.87 2.88326 134.405 0.470352 141.192 0.269409H302.102C315.464 0.269409 323.997 10.8143 321.26 23.8546L271.353 258.177C270.272 262.558 267.794 266.467 264.294 269.313C260.794 272.159 256.462 273.789 251.954 273.955H58.9255L111.892 23.8546Z" fill="url(#paint0_linear_150_2)"/>
<path d="M0.806327 152.648C-1.93052 139.608 6.60202 129.062 19.9643 129.062H180.876C187.634 129.298 194.132 131.726 199.39 135.981C204.647 140.237 208.376 146.086 210.015 152.648L232.473 258.177C233.553 262.558 236.031 266.467 239.532 269.313C243.033 272.159 247.364 273.788 251.873 273.955H42.7446C33.89 273.955 25.116 266.871 23.2646 258.177L0.806327 152.728V152.648Z" fill="#9A66FF"/>
<defs>
<linearGradient id="paint0_linear_150_2" x1="190.374" y1="0.188914" x2="190.374" y2="273.955" gradientUnits="userSpaceOnUse">
<stop stop-color="#FF5091"/>
<stop offset="1" stop-color="#E03071"/>
</linearGradient>
</defs>
</svg>
