<svg width="25" height="25" viewBox="0 0 25 25" fill="none" xmlns="http://www.w3.org/2000/svg">
<path d="M8.6877 3.70625C8.81552 3.19479 9.10694 2.73909 9.51762 2.40852C9.9283 2.07795 10.4357 1.8906 10.9627 1.875H23.4564C24.4939 1.875 25.1564 2.69375 24.9439 3.70625L21.0689 21.9C20.985 22.2401 20.7926 22.5436 20.5208 22.7646C20.2491 22.9856 19.9127 23.1121 19.5627 23.125H4.5752L8.6877 3.70625Z" fill="url(#paint0_linear_120_32)"/>
<path d="M0.0625999 13.7063C-0.1499 12.6938 0.5126 11.875 1.5501 11.875H14.0439C14.5686 11.8933 15.0732 12.0818 15.4814 12.4122C15.8896 12.7426 16.1791 13.1968 16.3064 13.7063L18.0501 21.9C18.134 22.2401 18.3264 22.5436 18.5982 22.7646C18.87 22.9856 19.2063 23.1121 19.5564 23.125H3.31885C2.63135 23.125 1.9501 22.575 1.80635 21.9L0.0625999 13.7125V13.7063Z" fill="#9A66FF"/>
<path d="M19.5623 23.125C18.8686 23.125 18.1873 22.575 18.0498 21.9L16.3061 13.7125C16.18 13.2019 15.8909 12.7463 15.4827 12.4147C15.0744 12.0831 14.5692 11.8936 14.0436 11.875H6.9623L4.58105 23.125H19.5561H19.5623Z" fill="url(#paint1_linear_120_32)"/>
<defs>
<linearGradient id="paint0_linear_120_32" x1="14.7814" y1="1.86875" x2="14.7814" y2="23.125" gradientUnits="userSpaceOnUse">
<stop stop-color="#FF5091"/>
<stop offset="1" stop-color="#E03071"/>
</linearGradient>
<linearGradient id="paint1_linear_120_32" x1="12.0686" y1="11.875" x2="12.0686" y2="23.125" gradientUnits="userSpaceOnUse">
<stop stop-color="#6E00F5"/>
<stop offset="1" stop-color="#9860FE"/>
</linearGradient>
</defs>
</svg>
